<mxfile host="Electron" modified="2024-05-08T03:55:10.567Z" agent="Mozilla/5.0 (Windows NT 10.0; Win64; x64) AppleWebKit/537.36 (KHTML, like Gecko) draw.io/24.2.5 Chrome/120.0.6099.109 Electron/28.1.0 Safari/537.36" etag="lnIQPExmYlE7CoKnQ3jY" version="24.2.5" type="device">
  <diagram name="PÃ¡gina-1" id="zs5-2xMDY_ove1RFEkQa">
    <mxGraphModel dx="1974" dy="675" grid="1" gridSize="10" guides="1" tooltips="1" connect="1" arrows="1" fold="1" page="1" pageScale="1" pageWidth="827" pageHeight="1169" math="0" shadow="0">
      <root>
        <mxCell id="0" />
        <mxCell id="1" parent="0" />
        <mxCell id="DmycuugJDVOeb6B3XX9v-1" value="API UX TIPO CAM&lt;span style=&quot;background-color: initial;&quot;&gt;BIO&lt;/span&gt;" style="rounded=1;whiteSpace=wrap;html=1;" vertex="1" parent="1">
          <mxGeometry x="-620" y="390" width="200" height="110" as="geometry" />
        </mxCell>
        <mxCell id="DmycuugJDVOeb6B3XX9v-17" style="edgeStyle=orthogonalEdgeStyle;rounded=0;orthogonalLoop=1;jettySize=auto;html=1;" edge="1" parent="1" source="DmycuugJDVOeb6B3XX9v-2" target="DmycuugJDVOeb6B3XX9v-4">
          <mxGeometry relative="1" as="geometry" />
        </mxCell>
        <mxCell id="DmycuugJDVOeb6B3XX9v-2" value="API SP TIPO CAMBIO" style="rounded=1;whiteSpace=wrap;html=1;" vertex="1" parent="1">
          <mxGeometry x="-340" y="390" width="200" height="110" as="geometry" />
        </mxCell>
        <mxCell id="DmycuugJDVOeb6B3XX9v-3" style="edgeStyle=orthogonalEdgeStyle;rounded=0;orthogonalLoop=1;jettySize=auto;html=1;entryX=-0.001;entryY=0.56;entryDx=0;entryDy=0;entryPerimeter=0;" edge="1" parent="1" source="DmycuugJDVOeb6B3XX9v-1" target="DmycuugJDVOeb6B3XX9v-2">
          <mxGeometry relative="1" as="geometry" />
        </mxCell>
        <mxCell id="DmycuugJDVOeb6B3XX9v-22" style="edgeStyle=orthogonalEdgeStyle;rounded=0;orthogonalLoop=1;jettySize=auto;html=1;entryX=0.5;entryY=0;entryDx=0;entryDy=0;" edge="1" parent="1" source="DmycuugJDVOeb6B3XX9v-4" target="DmycuugJDVOeb6B3XX9v-9">
          <mxGeometry relative="1" as="geometry" />
        </mxCell>
        <mxCell id="DmycuugJDVOeb6B3XX9v-23" style="edgeStyle=orthogonalEdgeStyle;rounded=0;orthogonalLoop=1;jettySize=auto;html=1;entryX=0.5;entryY=0;entryDx=0;entryDy=0;" edge="1" parent="1" source="DmycuugJDVOeb6B3XX9v-4" target="DmycuugJDVOeb6B3XX9v-13">
          <mxGeometry relative="1" as="geometry" />
        </mxCell>
        <mxCell id="DmycuugJDVOeb6B3XX9v-24" style="edgeStyle=orthogonalEdgeStyle;rounded=0;orthogonalLoop=1;jettySize=auto;html=1;entryX=0.5;entryY=0;entryDx=0;entryDy=0;" edge="1" parent="1" source="DmycuugJDVOeb6B3XX9v-4" target="DmycuugJDVOeb6B3XX9v-18">
          <mxGeometry relative="1" as="geometry" />
        </mxCell>
        <mxCell id="DmycuugJDVOeb6B3XX9v-4" value="H2" style="shape=cylinder3;whiteSpace=wrap;html=1;boundedLbl=1;backgroundOutline=1;size=15;" vertex="1" parent="1">
          <mxGeometry x="-60" y="540" width="60" height="80" as="geometry" />
        </mxCell>
        <mxCell id="DmycuugJDVOeb6B3XX9v-9" value="Solicitud" style="swimlane;fontStyle=0;childLayout=stackLayout;horizontal=1;startSize=30;horizontalStack=0;resizeParent=1;resizeParentMax=0;resizeLast=0;collapsible=1;marginBottom=0;whiteSpace=wrap;html=1;" vertex="1" parent="1">
          <mxGeometry x="-180" y="660" width="140" height="240" as="geometry" />
        </mxCell>
        <mxCell id="DmycuugJDVOeb6B3XX9v-10" value="id_solicitud" style="text;strokeColor=none;fillColor=none;align=left;verticalAlign=middle;spacingLeft=4;spacingRight=4;overflow=hidden;points=[[0,0.5],[1,0.5]];portConstraint=eastwest;rotatable=0;whiteSpace=wrap;html=1;" vertex="1" parent="DmycuugJDVOeb6B3XX9v-9">
          <mxGeometry y="30" width="140" height="30" as="geometry" />
        </mxCell>
        <mxCell id="DmycuugJDVOeb6B3XX9v-11" value="usuario_solicitante" style="text;strokeColor=none;fillColor=none;align=left;verticalAlign=middle;spacingLeft=4;spacingRight=4;overflow=hidden;points=[[0,0.5],[1,0.5]];portConstraint=eastwest;rotatable=0;whiteSpace=wrap;html=1;" vertex="1" parent="DmycuugJDVOeb6B3XX9v-9">
          <mxGeometry y="60" width="140" height="30" as="geometry" />
        </mxCell>
        <mxCell id="DmycuugJDVOeb6B3XX9v-12" value="monto" style="text;strokeColor=none;fillColor=none;align=left;verticalAlign=middle;spacingLeft=4;spacingRight=4;overflow=hidden;points=[[0,0.5],[1,0.5]];portConstraint=eastwest;rotatable=0;whiteSpace=wrap;html=1;" vertex="1" parent="DmycuugJDVOeb6B3XX9v-9">
          <mxGeometry y="90" width="140" height="30" as="geometry" />
        </mxCell>
        <mxCell id="DmycuugJDVOeb6B3XX9v-34" value="moneda_origen" style="text;strokeColor=none;fillColor=none;align=left;verticalAlign=middle;spacingLeft=4;spacingRight=4;overflow=hidden;points=[[0,0.5],[1,0.5]];portConstraint=eastwest;rotatable=0;whiteSpace=wrap;html=1;" vertex="1" parent="DmycuugJDVOeb6B3XX9v-9">
          <mxGeometry y="120" width="140" height="30" as="geometry" />
        </mxCell>
        <mxCell id="DmycuugJDVOeb6B3XX9v-35" value="moneda_destino" style="text;strokeColor=none;fillColor=none;align=left;verticalAlign=middle;spacingLeft=4;spacingRight=4;overflow=hidden;points=[[0,0.5],[1,0.5]];portConstraint=eastwest;rotatable=0;whiteSpace=wrap;html=1;" vertex="1" parent="DmycuugJDVOeb6B3XX9v-9">
          <mxGeometry y="150" width="140" height="30" as="geometry" />
        </mxCell>
        <mxCell id="DmycuugJDVOeb6B3XX9v-37" value="monto_cambiado" style="text;strokeColor=none;fillColor=none;align=left;verticalAlign=middle;spacingLeft=4;spacingRight=4;overflow=hidden;points=[[0,0.5],[1,0.5]];portConstraint=eastwest;rotatable=0;whiteSpace=wrap;html=1;" vertex="1" parent="DmycuugJDVOeb6B3XX9v-9">
          <mxGeometry y="180" width="140" height="30" as="geometry" />
        </mxCell>
        <mxCell id="DmycuugJDVOeb6B3XX9v-38" value="fechaProceso" style="text;strokeColor=none;fillColor=none;align=left;verticalAlign=middle;spacingLeft=4;spacingRight=4;overflow=hidden;points=[[0,0.5],[1,0.5]];portConstraint=eastwest;rotatable=0;whiteSpace=wrap;html=1;" vertex="1" parent="DmycuugJDVOeb6B3XX9v-9">
          <mxGeometry y="210" width="140" height="30" as="geometry" />
        </mxCell>
        <mxCell id="DmycuugJDVOeb6B3XX9v-13" value="TipoCambio" style="swimlane;fontStyle=0;childLayout=stackLayout;horizontal=1;startSize=30;horizontalStack=0;resizeParent=1;resizeParentMax=0;resizeLast=0;collapsible=1;marginBottom=0;whiteSpace=wrap;html=1;" vertex="1" parent="1">
          <mxGeometry x="-20" y="660" width="140" height="210" as="geometry" />
        </mxCell>
        <mxCell id="DmycuugJDVOeb6B3XX9v-14" value="id" style="text;strokeColor=none;fillColor=none;align=left;verticalAlign=middle;spacingLeft=4;spacingRight=4;overflow=hidden;points=[[0,0.5],[1,0.5]];portConstraint=eastwest;rotatable=0;whiteSpace=wrap;html=1;" vertex="1" parent="DmycuugJDVOeb6B3XX9v-13">
          <mxGeometry y="30" width="140" height="30" as="geometry" />
        </mxCell>
        <mxCell id="DmycuugJDVOeb6B3XX9v-15" value="moneda_base" style="text;strokeColor=none;fillColor=none;align=left;verticalAlign=middle;spacingLeft=4;spacingRight=4;overflow=hidden;points=[[0,0.5],[1,0.5]];portConstraint=eastwest;rotatable=0;whiteSpace=wrap;html=1;" vertex="1" parent="DmycuugJDVOeb6B3XX9v-13">
          <mxGeometry y="60" width="140" height="30" as="geometry" />
        </mxCell>
        <mxCell id="DmycuugJDVOeb6B3XX9v-16" value="moneda_destino" style="text;strokeColor=none;fillColor=none;align=left;verticalAlign=middle;spacingLeft=4;spacingRight=4;overflow=hidden;points=[[0,0.5],[1,0.5]];portConstraint=eastwest;rotatable=0;whiteSpace=wrap;html=1;" vertex="1" parent="DmycuugJDVOeb6B3XX9v-13">
          <mxGeometry y="90" width="140" height="30" as="geometry" />
        </mxCell>
        <mxCell id="DmycuugJDVOeb6B3XX9v-25" value="tasa_cambio" style="text;strokeColor=none;fillColor=none;align=left;verticalAlign=middle;spacingLeft=4;spacingRight=4;overflow=hidden;points=[[0,0.5],[1,0.5]];portConstraint=eastwest;rotatable=0;whiteSpace=wrap;html=1;" vertex="1" parent="DmycuugJDVOeb6B3XX9v-13">
          <mxGeometry y="120" width="140" height="30" as="geometry" />
        </mxCell>
        <mxCell id="DmycuugJDVOeb6B3XX9v-26" value="fecha_hora" style="text;strokeColor=none;fillColor=none;align=left;verticalAlign=middle;spacingLeft=4;spacingRight=4;overflow=hidden;points=[[0,0.5],[1,0.5]];portConstraint=eastwest;rotatable=0;whiteSpace=wrap;html=1;" vertex="1" parent="DmycuugJDVOeb6B3XX9v-13">
          <mxGeometry y="150" width="140" height="30" as="geometry" />
        </mxCell>
        <mxCell id="DmycuugJDVOeb6B3XX9v-27" value="proveedor" style="text;strokeColor=none;fillColor=none;align=left;verticalAlign=middle;spacingLeft=4;spacingRight=4;overflow=hidden;points=[[0,0.5],[1,0.5]];portConstraint=eastwest;rotatable=0;whiteSpace=wrap;html=1;" vertex="1" parent="DmycuugJDVOeb6B3XX9v-13">
          <mxGeometry y="180" width="140" height="30" as="geometry" />
        </mxCell>
        <mxCell id="DmycuugJDVOeb6B3XX9v-18" value="Auditoria" style="swimlane;fontStyle=0;childLayout=stackLayout;horizontal=1;startSize=30;horizontalStack=0;resizeParent=1;resizeParentMax=0;resizeLast=0;collapsible=1;marginBottom=0;whiteSpace=wrap;html=1;" vertex="1" parent="1">
          <mxGeometry x="140" y="660" width="140" height="240" as="geometry" />
        </mxCell>
        <mxCell id="DmycuugJDVOeb6B3XX9v-19" value="id" style="text;strokeColor=none;fillColor=none;align=left;verticalAlign=middle;spacingLeft=4;spacingRight=4;overflow=hidden;points=[[0,0.5],[1,0.5]];portConstraint=eastwest;rotatable=0;whiteSpace=wrap;html=1;" vertex="1" parent="DmycuugJDVOeb6B3XX9v-18">
          <mxGeometry y="30" width="140" height="30" as="geometry" />
        </mxCell>
        <mxCell id="DmycuugJDVOeb6B3XX9v-20" value="id_tipocambio" style="text;strokeColor=none;fillColor=none;align=left;verticalAlign=middle;spacingLeft=4;spacingRight=4;overflow=hidden;points=[[0,0.5],[1,0.5]];portConstraint=eastwest;rotatable=0;whiteSpace=wrap;html=1;" vertex="1" parent="DmycuugJDVOeb6B3XX9v-18">
          <mxGeometry y="60" width="140" height="30" as="geometry" />
        </mxCell>
        <mxCell id="DmycuugJDVOeb6B3XX9v-21" value="fecha_hora" style="text;strokeColor=none;fillColor=none;align=left;verticalAlign=middle;spacingLeft=4;spacingRight=4;overflow=hidden;points=[[0,0.5],[1,0.5]];portConstraint=eastwest;rotatable=0;whiteSpace=wrap;html=1;" vertex="1" parent="DmycuugJDVOeb6B3XX9v-18">
          <mxGeometry y="90" width="140" height="30" as="geometry" />
        </mxCell>
        <mxCell id="DmycuugJDVOeb6B3XX9v-28" value="tipo_operacion" style="text;strokeColor=none;fillColor=none;align=left;verticalAlign=middle;spacingLeft=4;spacingRight=4;overflow=hidden;points=[[0,0.5],[1,0.5]];portConstraint=eastwest;rotatable=0;whiteSpace=wrap;html=1;" vertex="1" parent="DmycuugJDVOeb6B3XX9v-18">
          <mxGeometry y="120" width="140" height="30" as="geometry" />
        </mxCell>
        <mxCell id="DmycuugJDVOeb6B3XX9v-29" value="id_usuario" style="text;strokeColor=none;fillColor=none;align=left;verticalAlign=middle;spacingLeft=4;spacingRight=4;overflow=hidden;points=[[0,0.5],[1,0.5]];portConstraint=eastwest;rotatable=0;whiteSpace=wrap;html=1;" vertex="1" parent="DmycuugJDVOeb6B3XX9v-18">
          <mxGeometry y="150" width="140" height="30" as="geometry" />
        </mxCell>
        <mxCell id="DmycuugJDVOeb6B3XX9v-30" value="tipocambio_anterior" style="text;strokeColor=none;fillColor=none;align=left;verticalAlign=middle;spacingLeft=4;spacingRight=4;overflow=hidden;points=[[0,0.5],[1,0.5]];portConstraint=eastwest;rotatable=0;whiteSpace=wrap;html=1;" vertex="1" parent="DmycuugJDVOeb6B3XX9v-18">
          <mxGeometry y="180" width="140" height="30" as="geometry" />
        </mxCell>
        <mxCell id="DmycuugJDVOeb6B3XX9v-31" value="tipocambio_actual" style="text;strokeColor=none;fillColor=none;align=left;verticalAlign=middle;spacingLeft=4;spacingRight=4;overflow=hidden;points=[[0,0.5],[1,0.5]];portConstraint=eastwest;rotatable=0;whiteSpace=wrap;html=1;" vertex="1" parent="DmycuugJDVOeb6B3XX9v-18">
          <mxGeometry y="210" width="140" height="30" as="geometry" />
        </mxCell>
        <mxCell id="DmycuugJDVOeb6B3XX9v-33" style="edgeStyle=orthogonalEdgeStyle;rounded=0;orthogonalLoop=1;jettySize=auto;html=1;entryX=0;entryY=0.5;entryDx=0;entryDy=0;" edge="1" parent="1" source="DmycuugJDVOeb6B3XX9v-32" target="DmycuugJDVOeb6B3XX9v-1">
          <mxGeometry relative="1" as="geometry" />
        </mxCell>
        <mxCell id="DmycuugJDVOeb6B3XX9v-32" value="" style="image;aspect=fixed;perimeter=ellipsePerimeter;html=1;align=center;shadow=0;dashed=0;spacingTop=3;image=img/lib/active_directory/internet_globe.svg;" vertex="1" parent="1">
          <mxGeometry x="-800" y="400" width="70" height="70" as="geometry" />
        </mxCell>
      </root>
    </mxGraphModel>
  </diagram>
</mxfile>
